<svg width="16" height="15" viewBox="0 0 16 15" fill="none" xmlns="http://www.w3.org/2000/svg">
<path d="M8.046 14.737C7.062 14.737 6.138 14.551 5.274 14.179C4.41 13.819 3.648 13.315 2.988 12.667C2.34 12.007 1.83 11.245 1.458 10.381C1.098 9.517 0.918 8.593 0.918 7.609C0.918 6.613 1.098 5.689 1.458 4.837C1.83 3.973 2.34 3.217 2.988 2.569C3.648 1.909 4.41 1.399 5.274 1.039C6.138 0.666999 7.062 0.481 8.046 0.481C9.042 0.481 9.966 0.666999 10.818 1.039C11.682 1.399 12.438 1.909 13.086 2.569C13.746 3.217 14.256 3.973 14.616 4.837C14.988 5.689 15.174 6.613 15.174 7.609C15.174 8.593 14.988 9.517 14.616 10.381C14.256 11.245 13.746 12.007 13.086 12.667C12.438 13.315 11.682 13.819 10.818 14.179C9.966 14.551 9.042 14.737 8.046 14.737Z" fill="#efad2e"/>
</svg>
