<svg width="16" height="15" viewBox="0 0 16 15" fill="none" xmlns="http://www.w3.org/2000/svg">
<path d="M8.046 14.612C7.062 14.612 6.138 14.426 5.274 14.054C4.41 13.694 3.648 13.19 2.988 12.542C2.34 11.882 1.83 11.12 1.458 10.256C1.098 9.392 0.918 8.468 0.918 7.484C0.918 6.488 1.098 5.564 1.458 4.712C1.83 3.848 2.34 3.092 2.988 2.444C3.648 1.784 4.41 1.274 5.274 0.913999C6.138 0.541999 7.062 0.356 8.046 0.356C9.042 0.356 9.966 0.541999 10.818 0.913999C11.682 1.274 12.438 1.784 13.086 2.444C13.746 3.092 14.256 3.848 14.616 4.712C14.988 5.564 15.174 6.488 15.174 7.484C15.174 8.468 14.988 9.392 14.616 10.256C14.256 11.12 13.746 11.882 13.086 12.542C12.438 13.19 11.682 13.694 10.818 14.054C9.966 14.426 9.042 14.612 8.046 14.612Z" fill="#efad2e"/>
</svg>
