<svg width="16" height="16" viewBox="0 0 16 16" fill="none" xmlns="http://www.w3.org/2000/svg">
<path fill-rule="evenodd" clip-rule="evenodd" d="M7.70654 15.8125C11.8832 15.8125 15.269 12.4267 15.269 8.25C15.269 4.07335 11.8832 0.6875 7.70654 0.6875C3.52989 0.6875 0.144043 4.07335 0.144043 8.25C0.144043 12.4267 3.52989 15.8125 7.70654 15.8125ZM4.73145 8.25C4.73145 6.60683 6.0635 5.27478 7.70667 5.27478C9.34983 5.27478 10.6819 6.60683 10.6819 8.25C10.6819 9.89317 9.34983 11.2252 7.70667 11.2252C6.0635 11.2252 4.73145 9.89317 4.73145 8.25ZM7.70667 4.27478C5.51121 4.27478 3.73145 6.05455 3.73145 8.25C3.73145 10.4455 5.51121 12.2252 7.70667 12.2252C9.90212 12.2252 11.6819 10.4455 11.6819 8.25C11.6819 6.05455 9.90212 4.27478 7.70667 4.27478Z" fill="#efad2e"/>
</svg>
